<svg width="41" height="41" viewBox="0 0 41 41" fill="none" xmlns="http://www.w3.org/2000/svg">
<rect width="41" height="41" rx="6" fill="#1A202C"/>
<path d="M33.9002 35.1404V30.9473H34.5226V31.5806H34.5663C34.6428 31.3732 34.7811 31.2048 34.9813 31.0756C35.1815 30.9464 35.4071 30.8818 35.6583 30.8818C35.7056 30.8818 35.7648 30.8827 35.8357 30.8845C35.9067 30.8863 35.9604 30.8891 35.9968 30.8927V31.5479C35.975 31.5424 35.9249 31.5342 35.8467 31.5233C35.7702 31.5106 35.6892 31.5042 35.6037 31.5042C35.3999 31.5042 35.2179 31.547 35.0577 31.6325C34.8994 31.7162 34.7738 31.8327 34.681 31.9819C34.59 32.1293 34.5445 32.2977 34.5445 32.487V35.1404H33.9002Z" fill="white"/>
<path d="M31.0168 35.2278C30.6382 35.2278 30.3061 35.1377 30.0203 34.9575C29.7364 34.7774 29.5144 34.5253 29.3542 34.2014C29.1959 33.8774 29.1167 33.4989 29.1167 33.0657C29.1167 32.6289 29.1959 32.2476 29.3542 31.9219C29.5144 31.5961 29.7364 31.3431 30.0203 31.163C30.3061 30.9828 30.6382 30.8927 31.0168 30.8927C31.3953 30.8927 31.7265 30.9828 32.0104 31.163C32.2962 31.3431 32.5182 31.5961 32.6765 31.9219C32.8367 32.2476 32.9168 32.6289 32.9168 33.0657C32.9168 33.4989 32.8367 33.8774 32.6765 34.2014C32.5182 34.5253 32.2962 34.7774 32.0104 34.9575C31.7265 35.1377 31.3953 35.2278 31.0168 35.2278ZM31.0168 34.6491C31.3043 34.6491 31.5409 34.5754 31.7265 34.4279C31.9122 34.2805 32.0496 34.0867 32.1387 33.8465C32.2279 33.6062 32.2725 33.346 32.2725 33.0657C32.2725 32.7854 32.2279 32.5243 32.1387 32.2822C32.0496 32.0402 31.9122 31.8445 31.7265 31.6953C31.5409 31.5461 31.3043 31.4714 31.0168 31.4714C30.7292 31.4714 30.4926 31.5461 30.307 31.6953C30.1213 31.8445 29.9839 32.0402 29.8948 32.2822C29.8056 32.5243 29.761 32.7854 29.761 33.0657C29.761 33.346 29.8056 33.6062 29.8948 33.8465C29.9839 34.0867 30.1213 34.2805 30.307 34.4279C30.4926 34.5754 30.7292 34.6491 31.0168 34.6491Z" fill="white"/>
<path d="M28.3892 30.9473V31.4933H26.2162V30.9473H28.3892ZM26.8495 29.9427H27.4938V33.9393C27.4938 34.1213 27.5202 34.2578 27.573 34.3488C27.6276 34.4379 27.6967 34.498 27.7804 34.5289C27.866 34.5581 27.9561 34.5726 28.0507 34.5726C28.1217 34.5726 28.1799 34.569 28.2254 34.5617C28.2709 34.5526 28.3073 34.5453 28.3346 34.5399L28.4657 35.1186C28.422 35.135 28.361 35.1514 28.2827 35.1677C28.2045 35.1859 28.1053 35.195 27.9852 35.195C27.8032 35.195 27.6248 35.1559 27.4501 35.0777C27.2772 34.9994 27.1335 34.8802 27.0188 34.72C26.906 34.5599 26.8495 34.3579 26.8495 34.114V29.9427Z" fill="white"/>
<path d="M23.4679 35.2387C23.2021 35.2387 22.961 35.1887 22.7444 35.0886C22.5279 34.9867 22.3559 34.8402 22.2285 34.6491C22.1011 34.4561 22.0374 34.2232 22.0374 33.9502C22.0374 33.71 22.0847 33.5152 22.1793 33.366C22.274 33.2149 22.4005 33.0967 22.5588 33.0111C22.7171 32.9256 22.8918 32.8619 23.0829 32.82C23.2759 32.7763 23.4697 32.7418 23.6644 32.7163C23.9192 32.6835 24.1258 32.659 24.2841 32.6426C24.4443 32.6244 24.5607 32.5943 24.6335 32.5525C24.7081 32.5106 24.7455 32.4378 24.7455 32.3341V32.3123C24.7455 32.0429 24.6717 31.8336 24.5243 31.6844C24.3787 31.5351 24.1576 31.4605 23.861 31.4605C23.5534 31.4605 23.3123 31.5279 23.1375 31.6625C22.9628 31.7972 22.84 31.941 22.769 32.0939L22.1575 31.8755C22.2667 31.6207 22.4123 31.4223 22.5943 31.2803C22.7781 31.1366 22.9783 31.0365 23.1949 30.9801C23.4133 30.9218 23.628 30.8927 23.8391 30.8927C23.9738 30.8927 24.1285 30.9091 24.3032 30.9418C24.4797 30.9728 24.6499 31.0374 24.8137 31.1357C24.9793 31.2339 25.1167 31.3823 25.2259 31.5806C25.3351 31.779 25.3897 32.0447 25.3897 32.3778V35.1404H24.7455V34.5726H24.7127C24.669 34.6636 24.5962 34.761 24.4943 34.8647C24.3924 34.9685 24.2568 35.0567 24.0875 35.1295C23.9183 35.2023 23.7117 35.2387 23.4679 35.2387ZM23.5661 34.66C23.8209 34.66 24.0357 34.6099 24.2104 34.5098C24.3869 34.4097 24.5198 34.2805 24.609 34.1222C24.7 33.9639 24.7455 33.7973 24.7455 33.6226V33.033C24.7182 33.0657 24.6581 33.0957 24.5653 33.123C24.4743 33.1485 24.3687 33.1713 24.2486 33.1913C24.1303 33.2095 24.0148 33.2259 23.9019 33.2404C23.7909 33.2532 23.7008 33.2641 23.6317 33.2732C23.4642 33.295 23.3077 33.3305 23.1621 33.3797C23.0183 33.427 22.9019 33.4989 22.8127 33.5953C22.7253 33.69 22.6816 33.8192 22.6816 33.983C22.6816 34.2068 22.7645 34.3761 22.9301 34.4907C23.0975 34.6036 23.3095 34.66 23.5661 34.66Z" fill="white"/>
<path d="M19.0427 35.2278C18.6932 35.2278 18.3848 35.1396 18.1172 34.963C17.8497 34.7847 17.6404 34.5335 17.4894 34.2096C17.3383 33.8838 17.2628 33.4989 17.2628 33.0548C17.2628 32.6144 17.3383 32.2322 17.4894 31.9083C17.6404 31.5843 17.8506 31.3341 18.12 31.1575C18.3893 30.981 18.7005 30.8927 19.0536 30.8927C19.3266 30.8927 19.5422 30.9382 19.7006 31.0292C19.8607 31.1184 19.9827 31.2203 20.0664 31.335C20.1519 31.4478 20.2184 31.5406 20.2657 31.6134H20.3203V29.5496H20.9645V35.1405H20.3421V34.4962H20.2657C20.2184 34.5727 20.151 34.6691 20.0637 34.7856C19.9763 34.9003 19.8516 35.0031 19.6897 35.0941C19.5277 35.1833 19.312 35.2278 19.0427 35.2278ZM19.13 34.6491C19.3885 34.6491 19.6069 34.5818 19.7852 34.4471C19.9636 34.3106 20.0992 34.1222 20.192 33.882C20.2848 33.6399 20.3312 33.3606 20.3312 33.0439C20.3312 32.7309 20.2857 32.457 20.1947 32.2222C20.1037 31.9856 19.969 31.8018 19.7907 31.6708C19.6123 31.5379 19.3921 31.4715 19.13 31.4715C18.857 31.4715 18.6295 31.5415 18.4476 31.6817C18.2674 31.82 18.1318 32.0084 18.0408 32.2468C17.9516 32.4834 17.907 32.7491 17.907 33.0439C17.907 33.3424 17.9525 33.6136 18.0435 33.8574C18.1363 34.0995 18.2728 34.2924 18.453 34.4362C18.635 34.5781 18.8607 34.6491 19.13 34.6491Z" fill="white"/>
<path d="M15.635 35.1405V30.9473H16.2793V35.1405H15.635ZM15.9626 30.2485C15.8371 30.2485 15.7288 30.2057 15.6378 30.1201C15.5486 30.0346 15.504 29.9318 15.504 29.8117C15.504 29.6915 15.5486 29.5887 15.6378 29.5032C15.7288 29.4176 15.8371 29.3749 15.9626 29.3749C16.0882 29.3749 16.1956 29.4176 16.2848 29.5032C16.3758 29.5887 16.4213 29.6915 16.4213 29.8117C16.4213 29.9318 16.3758 30.0346 16.2848 30.1201C16.1956 30.2057 16.0882 30.2485 15.9626 30.2485Z" fill="white"/>
<path d="M14.4551 29.5496V35.1405H13.8108V29.5496H14.4551Z" fill="white"/>
<path d="M10.713 35.2387C10.4473 35.2387 10.2062 35.1887 9.98959 35.0886C9.77302 34.9867 9.60104 34.8402 9.47364 34.6491C9.34624 34.4561 9.28255 34.2232 9.28255 33.9502C9.28255 33.71 9.32987 33.5152 9.4245 33.366C9.51914 33.2149 9.64563 33.0967 9.80396 33.0111C9.9623 32.9256 10.137 32.8619 10.3281 32.82C10.521 32.7763 10.7148 32.7418 10.9096 32.7163C11.1644 32.6835 11.3709 32.659 11.5293 32.6426C11.6894 32.6244 11.8059 32.5943 11.8787 32.5525C11.9533 32.5106 11.9906 32.4378 11.9906 32.3341V32.3123C11.9906 32.0429 11.9169 31.8336 11.7695 31.6844C11.6239 31.5351 11.4028 31.4605 11.1061 31.4605C10.7986 31.4605 10.5574 31.5279 10.3827 31.6625C10.208 31.7972 10.0851 31.941 10.0142 32.0939L9.40266 31.8755C9.51186 31.6207 9.65746 31.4223 9.83945 31.2803C10.0233 31.1366 10.2235 31.0365 10.44 30.9801C10.6584 30.9218 10.8732 30.8927 11.0843 30.8927C11.219 30.8927 11.3737 30.9091 11.5484 30.9418C11.7249 30.9728 11.8951 31.0374 12.0589 31.1357C12.2245 31.2339 12.3619 31.3823 12.4711 31.5806C12.5803 31.779 12.6349 32.0447 12.6349 32.3778V35.1404H11.9906V34.5726H11.9579C11.9142 34.6636 11.8414 34.761 11.7395 34.8647C11.6376 34.9685 11.502 35.0567 11.3327 35.1295C11.1635 35.2023 10.9569 35.2387 10.713 35.2387ZM10.8113 34.66C11.0661 34.66 11.2808 34.6099 11.4556 34.5098C11.6321 34.4097 11.7649 34.2805 11.8541 34.1222C11.9451 33.9639 11.9906 33.7973 11.9906 33.6226V33.033C11.9633 33.0657 11.9033 33.0957 11.8104 33.123C11.7194 33.1485 11.6139 33.1713 11.4938 33.1913C11.3755 33.2095 11.2599 33.2259 11.1471 33.2404C11.0361 33.2532 10.946 33.2641 10.8768 33.2732C10.7094 33.295 10.5529 33.3305 10.4073 33.3797C10.2635 33.427 10.147 33.4989 10.0578 33.5953C9.97049 33.69 9.92681 33.8192 9.92681 33.983C9.92681 34.2068 10.0096 34.3761 10.1752 34.4907C10.3427 34.6036 10.5547 34.66 10.8113 34.66Z" fill="white"/>
<path d="M8.75636 30.9473L7.20577 35.1405H6.55059L5 30.9473H5.69886L6.85634 34.2887H6.90002L8.0575 30.9473H8.75636Z" fill="white"/>
<path d="M27.3102 27.5404C26.9062 27.5404 26.5577 27.4512 26.2647 27.2728C25.9735 27.0927 25.7487 26.8415 25.5904 26.5194C25.4338 26.1954 25.3556 25.8187 25.3556 25.3892C25.3556 24.9597 25.4338 24.5811 25.5904 24.2535C25.7487 23.9241 25.9689 23.6675 26.251 23.4837C26.5349 23.2981 26.8661 23.2053 27.2447 23.2053C27.4631 23.2053 27.6787 23.2417 27.8917 23.3145C28.1046 23.3873 28.2984 23.5056 28.4732 23.6693C28.6479 23.8313 28.7871 24.0461 28.8908 24.3136C28.9946 24.5811 29.0464 24.9105 29.0464 25.3018V25.5748H25.8142V25.0179H28.3913C28.3913 24.7813 28.3439 24.5702 28.2493 24.3846C28.1565 24.1989 28.0236 24.0524 27.8507 23.9451C27.6797 23.8377 27.4776 23.784 27.2447 23.784C26.9881 23.784 26.766 23.8477 26.5786 23.9751C26.393 24.1007 26.2501 24.2645 26.15 24.4665C26.0499 24.6685 25.9999 24.8851 25.9999 25.1162V25.4875C25.9999 25.8041 26.0544 26.0726 26.1636 26.2928C26.2747 26.5112 26.4284 26.6777 26.625 26.7924C26.8216 26.9052 27.05 26.9616 27.3102 26.9616C27.4795 26.9616 27.6323 26.938 27.7688 26.8906C27.9071 26.8415 28.0264 26.7687 28.1265 26.6723C28.2265 26.574 28.3039 26.452 28.3585 26.3064L28.9809 26.4812C28.9154 26.6923 28.8053 26.8779 28.6506 27.0381C28.4959 27.1964 28.3048 27.3202 28.0773 27.4093C27.8498 27.4967 27.5941 27.5404 27.3102 27.5404Z" fill="white"/>
<path d="M24.5059 24.1989L23.9272 24.3627C23.8908 24.2663 23.8371 24.1726 23.7661 24.0816C23.6969 23.9887 23.6023 23.9123 23.4822 23.8523C23.3621 23.7922 23.2083 23.7622 23.0208 23.7622C22.7642 23.7622 22.5504 23.8213 22.3793 23.9396C22.2101 24.0561 22.1254 24.2044 22.1254 24.3846C22.1254 24.5447 22.1837 24.6712 22.3001 24.764C22.4166 24.8569 22.5986 24.9342 22.8461 24.9961L23.4685 25.149C23.8434 25.24 24.1228 25.3792 24.3066 25.5666C24.4904 25.7523 24.5823 25.9916 24.5823 26.2846C24.5823 26.5248 24.5132 26.7396 24.3749 26.9289C24.2384 27.1181 24.0473 27.2674 23.8016 27.3766C23.5559 27.4858 23.2702 27.5404 22.9444 27.5404C22.5167 27.5404 22.1627 27.4475 21.8825 27.2619C21.6022 27.0763 21.4247 26.8051 21.3501 26.4484L21.9616 26.2955C22.0199 26.5212 22.13 26.6905 22.2919 26.8033C22.4557 26.9161 22.6696 26.9725 22.9335 26.9725C23.2338 26.9725 23.4722 26.9088 23.6487 26.7814C23.8271 26.6522 23.9162 26.4975 23.9162 26.3174C23.9162 26.1718 23.8653 26.0498 23.7634 25.9516C23.6615 25.8515 23.5049 25.7768 23.2938 25.7277L22.595 25.5639C22.211 25.4729 21.9289 25.3319 21.7487 25.1408C21.5703 24.9479 21.4812 24.7067 21.4812 24.4173C21.4812 24.1807 21.5476 23.9715 21.6804 23.7895C21.8151 23.6075 21.998 23.4646 22.2292 23.3609C22.4621 23.2571 22.726 23.2053 23.0208 23.2053C23.4358 23.2053 23.7616 23.2963 23.9981 23.4783C24.2366 23.6602 24.4058 23.9005 24.5059 24.1989Z" fill="white"/>
<path d="M18.6755 27.453V23.2599H19.2979V23.8932H19.3416C19.418 23.6857 19.5563 23.5174 19.7565 23.3882C19.9567 23.2589 20.1824 23.1943 20.4336 23.1943C20.4809 23.1943 20.54 23.1952 20.611 23.1971C20.682 23.1989 20.7357 23.2016 20.7721 23.2053V23.8604C20.7502 23.855 20.7002 23.8468 20.6219 23.8359C20.5455 23.8231 20.4645 23.8168 20.379 23.8168C20.1751 23.8168 19.9931 23.8595 19.833 23.9451C19.6746 24.0288 19.5491 24.1453 19.4562 24.2945C19.3652 24.4419 19.3198 24.6103 19.3198 24.7995V27.453H18.6755Z" fill="white"/>
<path d="M16.8512 25.7386V23.2599H17.4955V27.453H16.8512V26.7433H16.8076C16.7093 26.9562 16.5564 27.1373 16.3489 27.2865C16.1415 27.4339 15.8794 27.5076 15.5627 27.5076C15.3006 27.5076 15.0677 27.4503 14.8639 27.3356C14.66 27.2192 14.4999 27.0445 14.3834 26.8115C14.2669 26.5767 14.2087 26.281 14.2087 25.9243V23.2599H14.8529V25.8806C14.8529 26.1864 14.9385 26.4302 15.1096 26.6122C15.2824 26.7942 15.5027 26.8852 15.7702 26.8852C15.9303 26.8852 16.0932 26.8443 16.2588 26.7624C16.4263 26.6805 16.5664 26.5549 16.6793 26.3856C16.7939 26.2164 16.8512 26.0007 16.8512 25.7386Z" fill="white"/>
<path d="M11.3252 27.5404C10.9467 27.5404 10.6145 27.4503 10.3288 27.2701C10.0449 27.0899 9.82284 26.8379 9.66269 26.5139C9.50435 26.19 9.42519 25.8114 9.42519 25.3783C9.42519 24.9415 9.50435 24.5602 9.66269 24.2344C9.82284 23.9087 10.0449 23.6557 10.3288 23.4755C10.6145 23.2953 10.9467 23.2053 11.3252 23.2053C11.7038 23.2053 12.035 23.2953 12.3189 23.4755C12.6046 23.6557 12.8267 23.9087 12.985 24.2344C13.1451 24.5602 13.2252 24.9415 13.2252 25.3783C13.2252 25.8114 13.1451 26.19 12.985 26.5139C12.8267 26.8379 12.6046 27.0899 12.3189 27.2701C12.035 27.4503 11.7038 27.5404 11.3252 27.5404ZM11.3252 26.9616C11.6128 26.9616 11.8493 26.8879 12.035 26.7405C12.2206 26.5931 12.358 26.3993 12.4472 26.159C12.5364 25.9188 12.581 25.6585 12.581 25.3783C12.581 25.098 12.5364 24.8368 12.4472 24.5948C12.358 24.3527 12.2206 24.1571 12.035 24.0079C11.8493 23.8586 11.6128 23.784 11.3252 23.784C11.0377 23.784 10.8011 23.8586 10.6154 24.0079C10.4298 24.1571 10.2924 24.3527 10.2032 24.5948C10.114 24.8368 10.0694 25.098 10.0694 25.3783C10.0694 25.6585 10.114 25.9188 10.2032 26.159C10.2924 26.3993 10.4298 26.5931 10.6154 26.7405C10.8011 26.8879 11.0377 26.9616 11.3252 26.9616Z" fill="white"/>
<path d="M7.03106 27.5404C6.63795 27.5404 6.29945 27.4475 6.01553 27.2619C5.73162 27.0763 5.51323 26.8206 5.36036 26.4948C5.20748 26.169 5.13104 25.7969 5.13104 25.3783C5.13104 24.9524 5.2093 24.5766 5.36581 24.2508C5.52415 23.9232 5.74436 23.6675 6.02645 23.4837C6.31037 23.2981 6.64159 23.2053 7.02014 23.2053C7.31497 23.2053 7.58068 23.2599 7.81728 23.3691C8.05387 23.4783 8.24769 23.6311 8.39875 23.8277C8.5498 24.0242 8.64353 24.2535 8.67993 24.5156H8.03567C7.98653 24.3245 7.87734 24.1553 7.70808 24.0079C7.54065 23.8586 7.31497 23.784 7.03106 23.784C6.77991 23.784 6.5597 23.8495 6.37042 23.9806C6.18297 24.1098 6.03646 24.2927 5.93091 24.5293C5.82717 24.764 5.7753 25.0398 5.7753 25.3564C5.7753 25.6804 5.82626 25.9625 5.92818 26.2027C6.03191 26.4429 6.17751 26.6295 6.36496 26.7623C6.55424 26.8952 6.77627 26.9616 7.03106 26.9616C7.1985 26.9616 7.35046 26.9325 7.48696 26.8743C7.62345 26.816 7.73902 26.7323 7.83366 26.6231C7.92829 26.5139 7.99563 26.3829 8.03567 26.23H8.67993C8.64353 26.4775 8.55344 26.7005 8.40967 26.8988C8.26771 27.0954 8.07935 27.2519 7.84458 27.3684C7.61162 27.483 7.34045 27.5404 7.03106 27.5404Z" fill="white"/>
<path d="M19.6917 19.8638C19.426 19.8638 19.1849 19.8138 18.9683 19.7137C18.7517 19.6118 18.5797 19.4653 18.4523 19.2742C18.3249 19.0813 18.2612 18.8483 18.2612 18.5753C18.2612 18.3351 18.3085 18.1404 18.4032 17.9911C18.4978 17.8401 18.6243 17.7218 18.7826 17.6362C18.941 17.5507 19.1157 17.487 19.3068 17.4451C19.4997 17.4015 19.6935 17.3669 19.8883 17.3414C20.143 17.3086 20.3496 17.2841 20.5079 17.2677C20.6681 17.2495 20.7846 17.2195 20.8574 17.1776C20.932 17.1358 20.9693 17.063 20.9693 16.9592V16.9374C20.9693 16.668 20.8956 16.4587 20.7482 16.3095C20.6026 16.1603 20.3815 16.0856 20.0848 16.0856C19.7772 16.0856 19.5361 16.153 19.3614 16.2877C19.1867 16.4223 19.0638 16.5661 18.9928 16.719L18.3813 16.5006C18.4905 16.2458 18.6361 16.0474 18.8181 15.9055C19.0019 15.7617 19.2021 15.6616 19.4187 15.6052C19.6371 15.5469 19.8519 15.5178 20.063 15.5178C20.1976 15.5178 20.3523 15.5342 20.5271 15.567C20.7036 15.5979 20.8738 15.6625 21.0376 15.7608C21.2032 15.8591 21.3406 16.0074 21.4498 16.2058C21.559 16.4041 21.6136 16.6698 21.6136 17.0029V19.7656H20.9693V19.1977H20.9365C20.8929 19.2887 20.8201 19.3861 20.7182 19.4898C20.6162 19.5936 20.4806 19.6818 20.3114 19.7546C20.1421 19.8274 19.9356 19.8638 19.6917 19.8638ZM19.79 19.2851C20.0448 19.2851 20.2595 19.2351 20.4342 19.135C20.6108 19.0349 20.7436 18.9056 20.8328 18.7473C20.9238 18.589 20.9693 18.4224 20.9693 18.2477V17.6581C20.942 17.6908 20.8819 17.7209 20.7891 17.7482C20.6981 17.7736 20.5926 17.7964 20.4725 17.8164C20.3542 17.8346 20.2386 17.851 20.1258 17.8655C20.0147 17.8783 19.9247 17.8892 19.8555 17.8983C19.6881 17.9201 19.5315 17.9556 19.386 18.0048C19.2422 18.0521 19.1257 18.124 19.0365 18.2204C18.9492 18.3151 18.9055 18.4443 18.9055 18.6081C18.9055 18.8319 18.9883 19.0012 19.1539 19.1158C19.3213 19.2287 19.5334 19.2851 19.79 19.2851Z" fill="white"/>
<path d="M17.4887 15.5724V16.1184H15.3157V15.5724H17.4887ZM15.949 14.5678H16.5933V18.5644C16.5933 18.7464 16.6196 18.8829 16.6724 18.9739C16.727 19.0631 16.7962 19.1231 16.8799 19.1541C16.9654 19.1832 17.0555 19.1977 17.1502 19.1977C17.2211 19.1977 17.2794 19.1941 17.3249 19.1868C17.3704 19.1777 17.4068 19.1704 17.4341 19.165L17.5651 19.7437C17.5214 19.7601 17.4605 19.7765 17.3822 19.7929C17.3039 19.8111 17.2048 19.8202 17.0846 19.8202C16.9026 19.8202 16.7243 19.781 16.5496 19.7028C16.3767 19.6245 16.2329 19.5053 16.1183 19.3452C16.0054 19.185 15.949 18.983 15.949 18.7391V14.5678Z" fill="white"/>
<path d="M14.6189 16.5115L14.0401 16.6753C14.0037 16.5788 13.95 16.4851 13.879 16.3941C13.8099 16.3013 13.7153 16.2249 13.5951 16.1648C13.475 16.1048 13.3212 16.0747 13.1338 16.0747C12.8772 16.0747 12.6633 16.1339 12.4923 16.2522C12.323 16.3686 12.2384 16.517 12.2384 16.6971C12.2384 16.8573 12.2966 16.9838 12.4131 17.0766C12.5296 17.1694 12.7116 17.2468 12.9591 17.3086L13.5815 17.4615C13.9564 17.5525 14.2358 17.6917 14.4196 17.8792C14.6034 18.0648 14.6953 18.3042 14.6953 18.5972C14.6953 18.8374 14.6261 19.0522 14.4878 19.2414C14.3513 19.4307 14.1602 19.5799 13.9145 19.6891C13.6688 19.7983 13.3831 19.8529 13.0573 19.8529C12.6297 19.8529 12.2757 19.7601 11.9954 19.5745C11.7151 19.3888 11.5377 19.1177 11.4631 18.761L12.0746 18.6081C12.1328 18.8338 12.2429 19.003 12.4049 19.1158C12.5687 19.2287 12.7825 19.2851 13.0464 19.2851C13.3467 19.2851 13.5851 19.2214 13.7617 19.094C13.94 18.9648 14.0292 18.8101 14.0292 18.6299C14.0292 18.4843 13.9782 18.3624 13.8763 18.2641C13.7744 18.164 13.6179 18.0894 13.4068 18.0403L12.7079 17.8765C12.3239 17.7855 12.0418 17.6444 11.8616 17.4533C11.6833 17.2604 11.5941 17.0193 11.5941 16.7299C11.5941 16.4933 11.6605 16.284 11.7934 16.102C11.9281 15.92 12.111 15.7772 12.3421 15.6734C12.5751 15.5697 12.839 15.5178 13.1338 15.5178C13.5487 15.5178 13.8745 15.6088 14.1111 15.7908C14.3495 15.9728 14.5188 16.213 14.6189 16.5115Z" fill="white"/>
<path d="M7.79612 17.2431V19.7656H7.15186V15.5724H7.77428V16.2276H7.82887C7.92715 16.0147 8.07639 15.8436 8.27658 15.7144C8.47677 15.5833 8.73521 15.5178 9.05188 15.5178C9.33579 15.5178 9.58421 15.5761 9.79714 15.6925C10.0101 15.8072 10.1757 15.9819 10.294 16.2167C10.4123 16.4496 10.4714 16.7445 10.4714 17.1012V19.7656H9.82717V17.1449C9.82717 16.8154 9.74163 16.5588 9.57056 16.375C9.39948 16.1894 9.16471 16.0966 8.86624 16.0966C8.66059 16.0966 8.47677 16.1412 8.3148 16.2303C8.15464 16.3195 8.02816 16.4496 7.93534 16.6207C7.84252 16.7918 7.79612 16.9993 7.79612 17.2431Z" fill="white"/>
<path d="M5.32758 19.7656V15.5724H5.97184V19.7656H5.32758ZM5.65517 14.8736C5.5296 14.8736 5.42131 14.8308 5.33031 14.7453C5.24114 14.6597 5.19655 14.5569 5.19655 14.4368C5.19655 14.3167 5.24114 14.2138 5.33031 14.1283C5.42131 14.0428 5.5296 14 5.65517 14C5.78075 14 5.88813 14.0428 5.9773 14.1283C6.0683 14.2138 6.1138 14.3167 6.1138 14.4368C6.1138 14.5569 6.0683 14.6597 5.9773 14.7453C5.88813 14.8308 5.78075 14.8736 5.65517 14.8736Z" fill="white"/>
</svg>
